<?xml version="1.0" standalone="no"?>
<!DOCTYPE svg PUBLIC "-//W3C//DTD SVG 20010904//EN"
 "http://www.w3.org/TR/2001/REC-SVG-20010904/DTD/svg10.dtd">
<svg version="1.0" xmlns="http://www.w3.org/2000/svg"
 width="200.000000pt" height="200.000000pt" viewBox="0 0 200.000000 200.000000"
 preserveAspectRatio="xMidYMid meet">
<metadata>
Created by potrace 1.14, written by Peter Selinger 2001-2017
</metadata>
<g transform="translate(0.000000,200.000000) scale(0.100000,-0.100000)"
fill="#000000" stroke="none">
<path d="M905 1703 c-38 -8 -79 -20 -90 -27 -11 -7 -47 -23 -80 -36 -174 -69
-344 -188 -346 -242 -1 -13 -2 -34 -4 -48 -1 -14 -4 -43 -6 -65 -3 -39 -6 -41
-78 -77 -156 -78 -185 -140 -156 -328 4 -24 17 -60 29 -80 26 -41 40 -72 37
-83 -1 -5 2 -6 7 -3 14 8 50 -36 54 -64 2 -14 6 -29 10 -35 3 -5 7 -23 9 -40
4 -37 73 -176 98 -199 19 -17 20 -16 37 11 10 15 21 30 24 33 3 3 13 17 22 31
13 21 22 25 52 21 23 -3 34 -8 29 -16 -4 -8 -3 -8 6 0 13 12 142 -4 152 -19
10 -14 19 7 14 32 -2 12 1 21 8 21 8 0 7 3 -2 9 -8 5 -11 16 -7 26 6 17 7 17
26 0 11 -10 26 -15 34 -12 16 6 41 -25 29 -37 -3 -3 -1 -6 6 -6 9 0 11 8 6 27
l-6 27 21 -25 c12 -13 19 -19 16 -12 -4 6 -2 14 4 18 6 3 10 -4 11 -17 0 -21
1 -21 8 -4 5 14 10 16 15 8 4 -7 4 -16 1 -22 -4 -6 1 -7 11 -3 10 4 15 2 11
-4 -3 -5 0 -10 8 -10 13 0 13 3 0 17 -8 9 -15 23 -15 30 0 8 7 4 19 -9 16 -18
20 -19 25 -5 8 21 8 24 -5 24 -5 0 -7 -5 -3 -12 5 -7 3 -8 -5 -3 -10 5 -10 10
-1 19 8 8 15 6 26 -8 10 -14 11 -22 3 -27 -7 -4 -5 -8 6 -12 9 -4 13 -3 10 2
-3 6 3 15 12 21 17 11 17 11 1 6 -10 -3 -18 -1 -18 4 0 18 32 10 37 -9 3 -11
13 -19 23 -18 10 1 16 5 14 9 -3 5 -9 6 -14 3 -4 -3 -11 2 -14 11 -9 24 -8 26
17 12 12 -7 25 -11 30 -10 4 1 7 -4 7 -11 1 -6 7 -1 14 11 7 13 12 42 10 64
-2 30 1 38 11 34 7 -2 19 2 27 11 11 14 10 15 -9 9 -12 -4 -24 -3 -26 2 -8 12
10 38 20 29 4 -5 1 -13 -7 -18 -12 -9 -12 -10 3 -5 10 3 21 6 23 6 3 0 2 5 -1
10 -3 6 -1 10 5 10 7 0 10 -6 7 -14 -4 -10 0 -14 14 -13 19 1 25 12 12 20 -5
2 -3 2 4 1 17 -4 26 13 10 19 -6 2 -34 3 -62 2 -45 -3 -47 -2 -26 10 15 7 20
14 12 18 -8 4 -7 5 1 3 7 -2 12 -9 11 -15 -2 -6 1 -11 5 -11 17 0 21 14 9 29
-11 14 -10 15 7 1 18 -14 19 -13 13 3 -4 11 -3 16 4 12 6 -4 8 -14 5 -22 -4
-9 -1 -13 6 -10 7 2 11 15 10 28 -2 13 -1 21 3 17 4 -4 9 -18 11 -30 8 -52 11
-62 24 -66 7 -3 10 0 6 7 -4 6 -2 11 5 11 7 0 5 6 -6 13 -10 8 -15 19 -11 26
4 6 2 18 -4 26 -9 11 -9 15 -1 15 6 0 11 -6 11 -12 0 -9 3 -10 8 -2 4 6 14 11
22 11 8 0 22 2 30 4 10 3 14 -5 15 -31 0 -25 5 -35 16 -35 9 0 24 -6 33 -14 9
-7 16 -10 16 -5 0 5 10 -2 21 -16 15 -17 19 -19 15 -7 -3 10 -2 15 3 12 5 -3
12 -1 16 5 3 5 11 10 16 10 6 0 3 -10 -5 -22 -9 -12 -16 -29 -16 -38 1 -15 31
43 36 70 2 8 7 16 12 18 5 1 18 10 28 18 10 9 12 12 4 8 -8 -3 -4 5 10 19 14
14 31 33 38 42 7 8 17 13 22 10 6 -3 8 0 5 7 -5 15 61 94 75 91 5 -2 -2 14
-15 34 -14 19 -25 39 -25 42 0 3 27 5 61 4 l61 -1 -6 30 c-3 17 -6 36 -6 43 0
7 -22 23 -50 36 l-50 24 30 30 c16 16 36 46 44 66 19 45 16 161 -6 209 -9 19
-21 50 -26 67 -16 47 -118 170 -166 198 -23 13 -74 32 -115 43 -64 16 -78 17
-112 6 -29 -10 -45 -11 -66 -3 -44 18 -219 19 -298 2z m380 -953 c-3 -5 -12
-10 -18 -10 -7 0 -6 4 3 10 19 12 23 12 15 0z m-550 -198 c-3 -3 -11 0 -18 7
-9 10 -8 11 6 5 10 -3 15 -9 12 -12z"/>
<path d="M1653 831 c0 -11 5 -18 9 -15 4 3 5 11 1 19 -7 21 -12 19 -10 -4z"/>
<path d="M1594 776 c0 -23 17 -29 33 -12 4 4 1 6 -7 4 -8 -1 -14 2 -15 9 0 23
-11 22 -11 -1z"/>
<path d="M1545 729 c-16 -10 -25 -19 -19 -19 7 0 22 9 35 20 30 24 23 24 -16
-1z"/>
<path d="M1280 721 c-8 -6 -17 -8 -22 -5 -4 2 -12 -5 -18 -17 -9 -16 -8 -23 4
-32 15 -11 15 -14 1 -35 -15 -21 -43 -33 -30 -13 3 5 0 13 -6 17 -8 4 -9 3 -5
-4 4 -7 4 -12 -1 -13 -28 -2 -47 -9 -62 -23 -10 -9 -20 -14 -22 -11 -3 2 -5
-6 -5 -20 0 -13 4 -21 8 -19 4 3 8 1 8 -5 0 -5 -5 -13 -10 -16 -6 -4 -5 -12 4
-21 19 -18 32 -18 17 0 -6 7 -9 21 -5 30 5 13 10 14 27 4 12 -6 25 -16 29 -22
6 -8 8 -7 8 1 0 7 -7 16 -16 21 -13 7 -13 11 5 33 11 13 20 19 21 13 0 -5 -5
-15 -11 -21 -8 -8 -8 -13 0 -17 6 -4 11 -16 11 -26 0 -24 10 -30 35 -19 19 9
19 9 -2 5 -35 -6 -37 40 -3 64 33 24 47 26 30 5 -12 -15 -6 -35 11 -35 5 0 9
5 9 11 0 5 -4 7 -10 4 -5 -3 -10 -2 -10 4 0 20 19 21 33 1 13 -18 15 -19 21
-5 3 9 2 13 -4 10 -6 -3 -10 -2 -10 4 0 21 19 20 36 -1 13 -19 15 -19 10 -4
-4 11 -1 23 6 28 9 6 6 7 -8 3 -13 -3 -26 0 -34 9 -10 13 -7 15 19 11 17 -2
35 -6 41 -10 6 -3 7 0 4 9 -3 9 -10 14 -15 11 -4 -3 -13 4 -19 15 -6 11 -15
18 -21 14 -17 -10 -37 15 -34 46 1 17 2 30 1 30 0 0 -8 -4 -16 -9z m1 -18
c-11 -5 -11 -7 0 -14 12 -7 12 -9 0 -9 -8 0 -2 -9 13 -21 14 -11 31 -17 37
-13 7 4 9 3 5 -4 -3 -5 -3 -12 1 -15 5 -2 2 -2 -5 0 -22 5 -34 -7 -22 -22 17
-21 -8 -30 -29 -11 -17 16 -19 16 -25 0 -4 -9 -9 -14 -12 -11 -4 3 -14 -2 -23
-11 -9 -10 -12 -12 -7 -5 6 9 5 18 -1 24 -7 7 -17 3 -30 -15 -12 -15 -27 -23
-39 -21 -10 2 -21 4 -23 4 -2 1 4 10 14 21 10 11 22 17 26 14 5 -3 9 1 10 8 0
10 2 10 6 -1 4 -11 7 -11 13 0 6 9 13 10 22 3 9 -7 22 -1 44 22 l31 32 -26 12
c-25 11 -25 12 -6 26 10 8 24 14 29 13 6 0 5 -3 -3 -6z"/>
<path d="M1266 629 c-14 -11 -26 -26 -26 -32 0 -7 5 -4 11 6 10 18 11 18 32 0
11 -10 17 -12 13 -5 -4 7 -3 19 4 27 19 23 -6 26 -34 4z m29 1 c-3 -5 -12 -10
-18 -10 -7 0 -6 4 3 10 19 12 23 12 15 0z"/>
<path d="M1139 574 c-7 -9 -6 -12 6 -10 22 3 40 23 20 23 -8 0 -20 -6 -26 -13z"/>
<path d="M1575 719 c-4 -6 -4 -13 -1 -16 3 -4 6 -1 6 6 0 7 5 9 12 5 7 -4 8
-3 4 4 -9 15 -13 15 -21 1z"/>
<path d="M1548 673 c-4 -13 0 -19 13 -19 14 0 16 3 6 16 -6 8 -12 16 -13 18
-1 1 -4 -5 -6 -15z"/>
<path d="M1470 660 c0 -5 7 -7 15 -4 8 4 15 8 15 10 0 2 -7 4 -15 4 -8 0 -15
-4 -15 -10z"/>
<path d="M1484 635 c-4 -8 -10 -13 -15 -10 -4 3 -13 -5 -19 -17 -9 -20 -9 -21
2 -7 7 9 21 15 30 13 11 -1 15 3 11 14 -4 10 -2 13 5 8 7 -4 12 -2 12 3 0 16
-20 13 -26 -4z"/>
<path d="M1520 620 c-9 -6 -10 -10 -3 -10 6 0 15 5 18 10 8 12 4 12 -15 0z"/>
<path d="M1379 588 c-4 -15 -6 -50 -3 -40 3 6 11 9 17 5 7 -4 5 2 -3 12 -14
17 -13 18 3 12 9 -3 17 -2 17 3 0 8 -28 15 -31 8z"/>
<path d="M1507 579 c7 -7 15 -10 18 -7 3 3 -2 9 -12 12 -14 6 -15 5 -6 -5z"/>
<path d="M1575 580 c3 -5 8 -10 11 -10 2 0 4 5 4 10 0 6 -5 10 -11 10 -5 0 -7
-4 -4 -10z"/>
<path d="M1416 553 c-6 -14 -5 -15 5 -6 7 7 10 15 7 18 -3 3 -9 -2 -12 -12z"/>
<path d="M1476 553 c-6 -14 -5 -15 5 -6 7 7 10 15 7 18 -3 3 -9 -2 -12 -12z"/>
<path d="M1237 553 c-4 -3 -7 -11 -7 -17 0 -6 5 -5 12 2 6 6 9 14 7 17 -3 3
-9 2 -12 -2z"/>
<path d="M1336 537 c3 -10 9 -15 12 -12 3 3 0 11 -7 18 -10 9 -11 8 -5 -6z"/>
<path d="M730 520 c0 -5 5 -10 11 -10 5 0 7 5 4 10 -3 6 -8 10 -11 10 -2 0 -4
-4 -4 -10z"/>
<path d="M1150 520 c0 -6 7 -10 15 -10 8 0 15 2 15 4 0 2 -7 6 -15 10 -8 3
-15 1 -15 -4z"/>
<path d="M1250 526 c0 -2 7 -7 16 -10 8 -3 12 -2 9 4 -6 10 -25 14 -25 6z"/>
<path d="M1290 520 c0 -5 5 -10 10 -10 6 0 10 5 10 10 0 6 -4 10 -10 10 -5 0
-10 -4 -10 -10z"/>
<path d="M785 500 c-3 -5 -1 -10 4 -10 6 0 11 5 11 10 0 6 -2 10 -4 10 -3 0
-8 -4 -11 -10z"/>
<path d="M1106 483 c-6 -14 -5 -15 5 -6 7 7 10 15 7 18 -3 3 -9 -2 -12 -12z"/>
<path d="M1170 490 c-8 -5 -12 -12 -9 -15 4 -3 12 1 19 10 14 17 11 19 -10 5z"/>
<path d="M847 459 c7 -7 15 -10 18 -7 3 3 -2 9 -12 12 -14 6 -15 5 -6 -5z"/>
<path d="M1116 462 c-3 -4 4 -9 15 -9 23 -2 25 3 4 10 -8 4 -16 3 -19 -1z"/>
<path d="M1335 460 c3 -5 8 -10 11 -10 2 0 4 5 4 10 0 6 -5 10 -11 10 -5 0 -7
-4 -4 -10z"/>
<path d="M1230 446 c0 -2 7 -7 16 -10 8 -3 12 -2 9 4 -6 10 -25 14 -25 6z"/>
<path d="M895 431 c-3 -5 -2 -12 3 -15 5 -3 9 1 9 9 0 17 -3 19 -12 6z"/>
<path d="M1133 425 c0 -8 4 -12 9 -9 5 3 6 10 3 15 -9 13 -12 11 -12 -6z"/>
<path d="M1015 420 c3 -5 8 -10 11 -10 2 0 4 5 4 10 0 6 -5 10 -11 10 -5 0 -7
-4 -4 -10z"/>
<path d="M1055 420 c3 -5 8 -10 11 -10 2 0 4 5 4 10 0 6 -5 10 -11 10 -5 0 -7
-4 -4 -10z"/>
<path d="M1090 419 c0 -5 5 -7 10 -4 6 3 10 8 10 11 0 2 -4 4 -10 4 -5 0 -10
-5 -10 -11z"/>
<path d="M813 395 c0 -8 4 -12 9 -9 5 3 6 10 3 15 -9 13 -12 11 -12 -6z"/>
</g>
</svg>
